<?xml version="1.0" encoding="UTF-8"?>
<svg width="300" height="400" viewBox="0 0 300 400" xmlns="http://www.w3.org/2000/svg">
  <!-- Body outline -->
  <circle cx="150" cy="80" r="50" fill="#ffdab9" stroke="#333" stroke-width="2"/>
  <rect x="125" y="130" width="50" height="100" rx="10" fill="#ffdab9" stroke="#333" stroke-width="2"/>
  
  <!-- Arms -->
  <path d="M 125 140 L 80 180" fill="none" stroke="#333" stroke-width="2"/>
  <path d="M 175 140 L 220 180" fill="none" stroke="#333" stroke-width="2"/>
  
  <!-- Hands -->
  <circle cx="80" cy="180" r="10" fill="#ffdab9" stroke="#333" stroke-width="2"/>
  <circle cx="220" cy="180" r="10" fill="#ffdab9" stroke="#333" stroke-width="2"/>
  
  <!-- Legs -->
  <path d="M 125 230 L 100 300" fill="none" stroke="#333" stroke-width="2"/>
  <path d="M 175 230 L 200 300" fill="none" stroke="#333" stroke-width="2"/>
  
  <!-- Feet -->
  <ellipse cx="100" cy="310" rx="15" ry="10" fill="#ffdab9" stroke="#333" stroke-width="2"/>
  <ellipse cx="200" cy="310" rx="15" ry="10" fill="#ffdab9" stroke="#333" stroke-width="2"/>
  
  <!-- Face features -->
  <circle cx="135" cy="70" r="5" fill="#333"/>
  <circle cx="165" cy="70" r="5" fill="#333"/>
  <path d="M 135 100 Q 150 110 165 100" fill="none" stroke="#333" stroke-width="2"/>
  
  <!-- Labels with lines -->
  <line x1="135" y1="70" x2="80" y2="40" stroke="#333" stroke-width="1"/>
  <text x="60" y="35" font-family="Arial" font-size="12" text-anchor="middle">Eyes</text>
  
  <line x1="150" y1="90" x2="50" y2="90" stroke="#333" stroke-width="1"/>
  <text x="30" y="95" font-family="Arial" font-size="12" text-anchor="middle">Nose</text>
  
  <line x1="150" y1="105" x2="70" y2="120" stroke="#333" stroke-width="1"/>
  <text x="45" y="125" font-family="Arial" font-size="12" text-anchor="middle">Mouth</text>
  
  <line x1="100" y1="180" x2="40" y2="200" stroke="#333" stroke-width="1"/>
  <text x="25" y="205" font-family="Arial" font-size="12" text-anchor="middle">Arm</text>
  
  <line x1="150" y1="170" x2="240" y2="210" stroke="#333" stroke-width="1"/>
  <text x="250" y="215" font-family="Arial" font-size="12" text-anchor="middle">Body</text>
  
  <line x1="100" y1="260" x2="50" y2="260" stroke="#333" stroke-width="1"/>
  <text x="30" y="265" font-family="Arial" font-size="12" text-anchor="middle">Leg</text>
  
  <line x1="100" y1="310" x2="50" y2="330" stroke="#333" stroke-width="1"/>
  <text x="35" y="335" font-family="Arial" font-size="12" text-anchor="middle">Foot</text>
  
  <text x="150" y="350" font-family="Arial" font-size="14" text-anchor="middle">Body Parts</text>
</svg>
