<?xml version="1.0" encoding="UTF-8"?>
<svg width="400" height="300" viewBox="0 0 400 300" xmlns="http://www.w3.org/2000/svg">
  <!-- Water background -->
  <rect x="0" y="150" width="400" height="150" fill="#add8e6" stroke="none"/>
  
  <!-- Houseboat -->
  <rect x="100" y="50" width="200" height="100" fill="#8b4513" stroke="#333" stroke-width="2"/>
  <path d="M 80 150 L 320 150 L 300 200 L 100 200 Z" fill="#a0522d" stroke="#333" stroke-width="2"/>
  
  <!-- Roof -->
  <path d="M 100 50 L 300 50 L 320 80 L 80 80 Z" fill="#cd853f" stroke="#333" stroke-width="2"/>
  
  <!-- Windows -->
  <rect x="130" y="90" width="30" height="30" fill="#87ceeb" stroke="#333" stroke-width="1"/>
  <rect x="240" y="90" width="30" height="30" fill="#87ceeb" stroke="#333" stroke-width="1"/>
  <line x1="145" y1="90" x2="145" y2="120" stroke="#333" stroke-width="1"/>
  <line x1="130" y1="105" x2="160" y2="105" stroke="#333" stroke-width="1"/>
  <line x1="255" y1="90" x2="255" y2="120" stroke="#333" stroke-width="1"/>
  <line x1="240" y1="105" x2="270" y2="105" stroke="#333" stroke-width="1"/>
  
  <!-- Door -->
  <rect x="185" y="100" width="30" height="50" fill="#8b4513" stroke="#333" stroke-width="1"/>
  <circle cx="190" cy="125" r="2" fill="#ffd700"/>
  
  <!-- Fish 1 -->
  <path d="M 80 220 L 120 210 L 130 220 L 120 230 Z" fill="#ff7f50" stroke="#333" stroke-width="1"/>
  <circle cx="90" cy="220" r="2" fill="#333"/>
  <path d="M 80 220 L 70 215 L 70 225 Z" fill="#ff7f50" stroke="#333" stroke-width="1"/>
  
  <!-- Fish 2 -->
  <path d="M 150 250 L 190 240 L 200 250 L 190 260 Z" fill="#20b2aa" stroke="#333" stroke-width="1"/>
  <circle cx="160" cy="250" r="2" fill="#333"/>
  <path d="M 150 250 L 140 245 L 140 255 Z" fill="#20b2aa" stroke="#333" stroke-width="1"/>
  
  <!-- Fish 3 -->
  <path d="M 230 230 L 270 220 L 280 230 L 270 240 Z" fill="#da70d6" stroke="#333" stroke-width="1"/>
  <circle cx="240" cy="230" r="2" fill="#333"/>
  <path d="M 230 230 L 220 225 L 220 235 Z" fill="#da70d6" stroke="#333" stroke-width="1"/>
  
  <!-- Fish 4 -->
  <path d="M 290 260 L 330 250 L 340 260 L 330 270 Z" fill="#1e90ff" stroke="#333" stroke-width="1"/>
  <circle cx="300" cy="260" r="2" fill="#333"/>
  <path d="M 290 260 L 280 255 L 280 265 Z" fill="#1e90ff" stroke="#333" stroke-width="1"/>
  
  <!-- Fish 5 -->
  <path d="M 180 190 L 220 180 L 230 190 L 220 200 Z" fill="#ffd700" stroke="#333" stroke-width="1"/>
  <circle cx="190" cy="190" r="2" fill="#333"/>
  <path d="M 180 190 L 170 185 L 170 195 Z" fill="#ffd700" stroke="#333" stroke-width="1"/>
  
  <text x="200" y="280" font-family="Arial" font-size="14" text-anchor="middle">Houseboat with Many Fish</text>
</svg>
